<svg width="40" height="40" viewBox="0 0 40 40" fill="none" xmlns="http://www.w3.org/2000/svg">
<path opacity="0.5" d="M39.8219 0.268939L30.0763 36.6581C30.0268 36.8232 29.8286 36.8728 29.7129 36.7572L23.1883 30.2326L28.0776 11.9967C28.1272 11.8315 27.9785 11.6829 27.8134 11.7324L9.57753 16.6217L3.08596 10.1302C2.97034 10.0145 3.01989 9.81633 3.18507 9.76678L39.5576 0.00465166C39.7228 -0.0283843 39.8715 0.120278 39.8219 0.268939Z" fill="#00B37E"/>
<path opacity="0.5" d="M23.1882 30.2329L20.6775 39.6481C20.6279 39.8133 20.4297 39.8629 20.3141 39.7472L0.0630156 19.5127C-0.0526102 19.3971 -0.0030565 19.1989 0.162123 19.1493L9.57737 16.6221L23.1882 30.2329Z" fill="#00B37E"/>
<path d="M28.0777 11.9966L23.1884 30.2325L9.57764 16.6217L27.8134 11.7323C27.9786 11.6828 28.1273 11.8314 28.0777 11.9966Z" fill="#00B37E"/>
</svg>
